<svg width="456" height="147" viewBox="0 0 456 147" fill="none" xmlns="http://www.w3.org/2000/svg">
<path d="M224.031 50.25H243.423V115.395C243.423 120.297 242.432 124.683 240.449 128.553C238.51 132.466 235.838 135.799 232.434 138.55C229.03 141.302 225.108 143.388 220.67 144.807C216.274 146.269 211.62 147 206.708 147C202.14 147 197.766 146.118 193.586 144.355C189.406 142.635 185.678 140.228 182.403 137.132C179.128 134.035 176.542 130.445 174.646 126.36L192.358 118.362C193.263 120.297 194.448 121.931 195.913 123.264C197.378 124.64 199.037 125.694 200.89 126.424C202.743 127.156 204.682 127.521 206.708 127.521C208.948 127.521 211.103 127.285 213.172 126.812C215.24 126.339 217.093 125.607 218.731 124.618C220.368 123.63 221.661 122.361 222.609 120.813C223.557 119.308 224.031 117.502 224.031 115.395V109.074C222.092 111.267 219.786 113.051 217.115 114.427C214.486 115.76 211.448 116.427 208 116.427C203.303 116.427 198.908 115.546 194.814 113.783C190.72 112.02 187.1 109.59 183.954 106.494C180.852 103.355 178.417 99.743 176.65 95.658C174.883 91.573 174 87.187 174 82.5C174 77.813 174.883 73.427 176.65 69.342C178.417 65.257 180.852 61.6665 183.954 58.5705C187.1 55.4315 190.72 52.9805 194.814 51.2175C198.908 49.4545 203.303 48.573 208 48.573C211.448 48.573 214.486 49.261 217.115 50.637C219.786 51.97 222.092 53.733 224.031 55.926V50.25ZM208.259 97.851C210.931 97.851 213.365 97.163 215.563 95.787C217.761 94.411 219.506 92.562 220.799 90.24C222.092 87.918 222.738 85.338 222.738 82.5C222.738 79.662 222.092 77.082 220.799 74.76C219.506 72.438 217.761 70.589 215.563 69.213C213.365 67.837 210.931 67.149 208.259 67.149C205.63 67.149 203.217 67.837 201.019 69.213C198.865 70.589 197.141 72.438 195.848 74.76C194.555 77.082 193.909 79.662 193.909 82.5C193.909 85.338 194.555 87.918 195.848 90.24C197.141 92.562 198.865 94.411 201.019 95.787C203.217 97.163 205.63 97.851 208.259 97.851Z" fill="#0F82FF"/>
<path d="M278.322 147H258.93V50.25H278.322V56.313C280.347 54.034 282.696 52.185 285.368 50.766C288.04 49.304 291.121 48.573 294.611 48.573C299.352 48.573 303.769 49.4545 307.862 51.2175C311.956 52.9805 315.554 55.4315 318.657 58.5705C321.803 61.6665 324.238 65.257 325.961 69.342C327.728 73.427 328.612 77.813 328.612 82.5C328.612 87.187 327.728 91.5945 325.961 95.7225C324.238 99.8505 321.803 103.484 318.657 106.623C315.554 109.719 311.956 112.149 307.862 113.912C303.769 115.675 299.352 116.556 294.611 116.556C291.121 116.556 288.04 115.825 285.368 114.363C282.696 112.901 280.347 111.052 278.322 108.816V147ZM294.353 67.149C291.724 67.149 289.311 67.8585 287.113 69.2775C284.958 70.6535 283.235 72.5025 281.942 74.8245C280.649 77.1465 280.003 79.705 280.003 82.5C280.003 85.338 280.649 87.918 281.942 90.24C283.235 92.562 284.958 94.411 287.113 95.787C289.311 97.163 291.724 97.851 294.353 97.851C297.024 97.851 299.459 97.163 301.657 95.787C303.855 94.411 305.6 92.562 306.893 90.24C308.186 87.918 308.832 85.338 308.832 82.5C308.832 79.705 308.186 77.1465 306.893 74.8245C305.6 72.5025 303.855 70.6535 301.657 69.2775C299.459 67.8585 297.024 67.149 294.353 67.149Z" fill="#0F82FF"/>
<path d="M374.524 69.6H363.535V114.75H344.143V69.6H335.74V50.25H344.143V29.997H363.535V50.25H374.524V69.6Z" fill="#0F82FF"/>
<path d="M421.87 48.444C428.162 48.444 433.893 49.9705 439.064 53.0235C444.236 56.0765 448.351 60.183 451.411 65.343C454.47 70.46 456 76.136 456 82.371C456 87.058 455.117 91.4655 453.35 95.5935C451.583 99.7215 449.127 103.355 445.981 106.494C442.878 109.59 439.258 112.02 435.121 113.783C431.028 115.546 426.611 116.427 421.87 116.427C418.466 116.427 415.406 115.696 412.692 114.234C409.977 112.772 407.607 110.923 405.581 108.687V114.75H386.189V18H405.581V56.184C407.607 53.905 409.977 52.056 412.692 50.637C415.406 49.175 418.466 48.444 421.87 48.444ZM421.612 97.722C424.284 97.722 426.718 97.034 428.916 95.658C431.114 94.282 432.859 92.433 434.152 90.111C435.445 87.789 436.091 85.209 436.091 82.371C436.091 79.576 435.445 77.0175 434.152 74.6955C432.859 72.3735 431.114 70.5245 428.916 69.1485C426.718 67.7295 424.284 67.02 421.612 67.02C418.983 67.02 416.57 67.7295 414.372 69.1485C412.217 70.5245 410.494 72.3735 409.201 74.6955C407.908 77.0175 407.262 79.576 407.262 82.371C407.262 85.209 407.908 87.789 409.201 90.111C410.494 92.433 412.217 94.282 414.372 95.658C416.57 97.034 418.983 97.722 421.612 97.722Z" fill="#0F82FF"/>
<path fill-rule="evenodd" clip-rule="evenodd" d="M0 7.01081C0 -0.32289 9.84559 -2.71985 13.2166 3.79315L24.4073 25.4139C26.0848 28.6549 30.2383 29.6424 33.4061 27.8306C44.4346 21.5233 57.4972 18.0009 71.5 18.0009C110.988 18.0009 143 46.0126 143 85.5009C143 124.989 110.988 147.001 71.5 147.001C32.0116 147.001 0 124.989 0 85.5009C0 76.7802 0.0013252 68.0592 0.00265042 59.3381C0.00530089 41.8958 0.00795142 24.453 0 7.01081ZM70.676 49C48.9698 49 30.9144 65.6942 29.2164 87.3339L29.1535 88.1353C27.9214 103.838 38.5233 118.02 53.9325 121.281C65.5158 123.733 77.4842 123.733 89.0674 121.281C104.477 118.02 115.079 103.838 113.846 88.1353L113.784 87.3339C112.086 65.6942 94.0302 49 72.324 49H70.676Z" fill="#0F82FF"/>
<rect x="43" y="72.2581" width="13" height="15" rx="6.5" fill="#0F82FF"/>
<rect x="87" y="72.2581" width="13" height="15" rx="6.5" fill="#0F82FF"/>
</svg>
